# xmcd CD database file
#
# Track frame offsets:
#	150
#	14337
#	36936
#	54881
#	74074
#	94226
#	109803
#	134842
#	157492
#	175660
#
# Disc length: 2656 seconds
#
# Revision: 0
# Processed by: cddbd v1.5.2PL0 Copyright (c) Steve Scherf et al.
# Submitted via: CDex 1.70
#
DISCID=930a5e0a
DTITLE=David Ralston - Blue Sky
DYEAR=2002
DGENRE=Blues
TTITLE0=Blue Skies
TTITLE1=I Lose Myself
TTITLE2=Let Your Love Rain
TTITLE3=Carolina
TTITLE4=Some Things Go Without Saying
TTITLE5=I Just Wanna Know
TTITLE6=A Long Time Ago
TTITLE7=Time To Get It On
TTITLE8=Moanin Blues
TTITLE9=When He Calls
EXTD=YEAR: 2002
EXTT0=
EXTT1=
EXTT2=
EXTT3=
EXTT4=
EXTT5=
EXTT6=
EXTT7=
EXTT8=
EXTT9=
PLAYORDER=
